# xmcd
#
# Track frame offsets:
#	150
#	17224
#	30279
#	40278
#	56392
#	70923
#	83077
#	100162
#	114164
#	126830
#	142215
#	158233
#	171982
#	181795
#	192831
#	202389
#	211808
#	223657
#	238640
#	254180
#
# Disc length: 3606
#
# Revision: 1
# Processed by: cddbd v1.5.1PL0 Copyright (c) Steve Scherf et al.
# Submitted via: NeoAudio 9.9.9
# Normalized: r0:TDELIM( - ),TSWAP
#
DISCID=250e1414
DTITLE=Conutry Christmas - Country Christmas
DYEAR=2002
DGENRE=Country
TTITLE0=dolly parton - winter in wonderland
TTITLE1=alan jackson - lf we make it thriugh december
TTITLE2=garth brooks - let it snow
TTITLE3=clay walker - cowboy christmas
TTITLE4=lorrie morgan - sleigh ride
TTITLE5=susy boguss - two step  round  thechristmas tree
TTITLE6=alabama - christmas in dixie
TTITLE7=clay walker - blue christmas
TTITLE8=carlene carter - rockin little christmas
TTITLE9=george strait - christmas cookies
TTITLE10=kenny rogers - l believe in santa claus
TTITLE11=alan jackson - rudolph the red nosed reindeerv
TTITLE12=aaron tippin - jingle bells rocks
TTITLE13=lonestar - all my love for christmas
TTITLE14=george jones - mr and mr.santa claus
TTITLE15=reba mcentire - christmas country style
TTITLE16=ricky van shelton - country christmas
TTITLE17=thwe trators - swingin home for christmas
TTITLE18=the mavericks - santa claus is back in town
TTITLE19=reba mcentire - silent night
EXTD=YEAR: 2002
EXTT0=
EXTT1=
EXTT2=
EXTT3=
EXTT4=
EXTT5=
EXTT6=
EXTT7=
EXTT8=
EXTT9=
EXTT10=
EXTT11=
EXTT12=
EXTT13=
EXTT14=
EXTT15=
EXTT16=
EXTT17=
EXTT18=
EXTT19=
PLAYORDER=
